<?xml version="1.0" standalone="no"?>
<!DOCTYPE svg PUBLIC "-//W3C//DTD SVG 20010904//EN"
 "http://www.w3.org/TR/2001/REC-SVG-20010904/DTD/svg10.dtd">
<svg version="1.0" xmlns="http://www.w3.org/2000/svg"
 width="300.000000pt" height="300.000000pt" viewBox="0 0 300.000000 300.000000"
 preserveAspectRatio="xMidYMid meet">
<metadata>
Created by potrace 1.11, written by Peter Selinger 2001-2013
</metadata>
<g transform="translate(0.000000,300.000000) scale(0.100000,-0.100000)"
fill="#000000" stroke="none">
<path d="M977 2899 c-54 -11 -86 -28 -135 -73 -41 -38 -62 -76 -77 -140 l-11
-49 -357 0 -358 0 1 -292 c1 -194 5 -306 13 -336 28 -103 97 -186 196 -235 52
-26 67 -29 193 -32 l137 -4 26 -55 c15 -30 25 -55 24 -57 -2 -1 -24 -14 -49
-28 -91 -52 -159 -148 -175 -246 -9 -53 -8 -973 0 -1027 9 -53 47 -127 91
-175 38 -42 125 -97 171 -108 16 -4 465 -7 998 -7 l970 0 65 31 c108 52 181
140 205 248 7 35 10 206 9 546 -2 539 -1 534 -61 625 -41 62 -86 101 -150 130
l-22 10 26 53 c16 35 25 71 25 101 0 50 -20 121 -34 121 -4 0 -8 5 -8 11 0 18
-61 67 -97 80 -18 6 -34 14 -34 17 -1 4 -2 153 -3 332 -1 179 -6 341 -10 360
-20 89 -102 172 -195 196 -93 24 -148 8 -282 -78 -46 -30 -129 -83 -184 -118
l-99 -64 -125 0 c-143 -1 -102 -18 -366 149 -193 122 -223 132 -318 114z"/>
</g>
</svg>
